<?xml version="1.0" standalone="no"?>
<!DOCTYPE svg PUBLIC "-//W3C//DTD SVG 20010904//EN"
 "http://www.w3.org/TR/2001/REC-SVG-20010904/DTD/svg10.dtd">
<svg version="1.0" xmlns="http://www.w3.org/2000/svg"
 width="450.000000pt" height="289.000000pt" viewBox="0 0 450.000000 289.000000"
 preserveAspectRatio="xMidYMid meet">
<metadata>
Created by potrace 1.10, written by Peter Selinger 2001-2011
</metadata>
<g transform="translate(0.000000,289.000000) scale(0.100000,-0.100000)"
fill="#000000" stroke="none">
<path d="M2080 2837 c-265 -90 -441 -241 -785 -672 -110 -137 -236 -286 -280
-330 -142 -144 -260 -205 -402 -213 -71 -3 -87 -1 -121 18 -62 35 -83 102 -38
120 30 11 46 39 46 79 0 43 -31 71 -79 71 -50 0 -87 -30 -101 -81 -41 -151
122 -271 325 -239 121 19 236 84 364 205 41 39 169 189 286 335 117 146 243
298 281 339 92 99 234 216 325 268 102 57 138 65 59 12 -36 -23 -114 -92 -175
-153 -127 -129 -187 -219 -277 -418 -154 -341 -219 -462 -288 -535 -32 -34
-38 -53 -17 -53 21 0 166 94 252 163 115 93 207 193 407 443 97 122 205 252
239 289 78 83 200 183 288 235 65 39 200 95 208 87 2 -3 -18 -17 -44 -32 -72
-42 -151 -106 -219 -177 -136 -141 -203 -244 -333 -511 -90 -185 -153 -286
-234 -373 -74 -80 -98 -90 -187 -75 -75 12 -103 7 -98 -18 3 -14 24 -16 148
-19 399 -9 615 90 804 366 27 38 47 75 45 81 -2 6 -33 -29 -68 -79 -148 -210
-317 -311 -567 -340 -137 -16 -153 -11 -82 23 130 64 246 176 353 342 29 44
100 175 158 291 158 313 250 443 362 509 41 24 45 24 111 12 87 -16 124 -12
124 13 0 25 -19 30 -114 30 -203 0 -430 -113 -631 -313 -56 -56 -181 -202
-278 -324 -190 -238 -323 -385 -421 -462 -92 -72 -98 -71 -25 5 97 101 182
239 319 513 67 134 142 276 168 315 63 96 173 204 245 240 31 15 57 32 57 37
0 13 -4 12 -110 -24z"/>
<path d="M2630 2049 c0 -8 30 -34 67 -58 53 -34 70 -41 83 -33 13 8 21 6 33
-6 15 -14 18 -14 35 1 17 15 19 15 35 0 13 -13 19 -14 31 -3 13 10 19 10 31 0
13 -10 19 -10 34 4 16 15 19 15 31 1 17 -21 33 -19 48 6 16 25 8 37 -12 20
-11 -9 -19 -9 -34 0 -16 10 -23 10 -35 0 -12 -10 -20 -10 -37 1 -17 11 -22 11
-30 -1 -7 -13 -11 -13 -25 -1 -13 11 -21 11 -36 2 -15 -10 -23 -9 -39 0 -15
10 -22 10 -31 1 -9 -9 -22 -5 -55 18 -24 16 -44 32 -44 35 0 11 1164 -7 1210
-18 58 -15 143 -98 159 -154 31 -112 -5 -222 -93 -281 -26 -18 -62 -36 -80
-41 -19 -6 -740 -6 -1741 -1 -1507 8 -1712 7 -1732 -6 -47 -31 -38 -103 16
-124 14 -5 58 -12 96 -15 246 -19 518 -180 662 -391 96 -142 145 -275 164
-440 6 -55 17 -128 26 -162 42 -173 198 -320 381 -358 52 -11 289 -14 1219
-16 634 -1 1157 2 1161 6 7 6 -10 23 -86 82 -30 24 -34 25 -51 9 -16 -15 -19
-15 -31 -1 -16 19 -29 19 -50 0 -15 -14 -20 -13 -44 6 l-27 21 -24 -22 -24
-23 -33 28 -32 27 -24 -27 -23 -28 -29 22 c-37 26 -42 26 -68 -2 -33 -35 -28
-56 6 -24 l27 26 34 -26 33 -26 23 29 23 29 31 -29 31 -30 25 24 25 24 29 -22
c25 -18 31 -19 41 -7 16 19 29 19 53 -2 18 -17 19 -17 28 0 13 23 20 22 64
-13 l38 -31 -1169 3 -1169 3 -59 23 c-158 60 -271 181 -312 337 -20 72 -17
120 11 231 71 279 273 531 530 661 101 52 270 97 430 116 17 2 4 5 -28 6 -61
1 -60 0 -82 70 l-7 23 818 -3 819 -4 49 24 c210 104 208 397 -4 490 -42 18
-80 20 -667 26 -528 7 -623 6 -623 -6z m-1422 -536 c21 -9 83 -62 138 -118
101 -100 172 -202 211 -303 l16 -42 -41 -58 c-56 -80 -110 -191 -143 -291 -14
-46 -29 -79 -31 -75 -3 5 -9 27 -13 49 -17 97 -77 235 -145 335 -58 85 -124
154 -211 220 -145 108 -303 171 -483 189 -68 7 -93 13 -103 27 -18 25 -16 41
7 64 19 19 33 20 391 20 329 0 375 -2 407 -17z m471 -45 c42 -57 75 -118 96
-179 l14 -38 -70 -57 c-39 -32 -83 -73 -99 -92 l-29 -35 -29 65 c-56 125 -163
260 -275 349 l-49 39 201 0 200 0 40 -52z m314 23 c10 -17 24 -48 32 -70 l14
-39 -116 -57 c-63 -31 -116 -55 -117 -53 -2 2 -13 28 -25 58 -19 50 -52 105
-97 168 l-16 22 154 0 154 0 17 -29z m236 -12 c7 -23 10 -43 8 -45 -9 -10
-169 -44 -178 -38 -5 3 -9 10 -9 16 0 5 -11 32 -25 59 l-24 49 108 0 108 0 12
-41z"/>
<path d="M3795 1830 c-9 -17 -23 -30 -35 -30 -24 0 -34 -16 -14 -24 13 -5 10
-13 -14 -48 -63 -91 -122 -121 -63 -32 33 50 40 98 17 107 -7 3 -41 3 -75 0
-60 -6 -62 -7 -87 -49 -38 -65 -89 -106 -127 -102 -49 5 -43 37 8 53 63 18 85
34 85 58 0 77 -124 49 -176 -39 -26 -44 -84 -95 -84 -74 0 7 14 31 31 55 51
71 23 128 -45 91 -33 -18 -36 -18 -52 -1 -12 12 -26 15 -47 11 -16 -3 -44 -6
-62 -6 -28 0 -37 -7 -76 -67 -41 -61 -89 -108 -89 -86 0 5 18 39 40 76 22 36
40 68 40 71 0 4 -13 6 -29 6 -24 0 -34 -8 -55 -43 -13 -24 -38 -58 -54 -75
-47 -50 -71 -38 -34 16 10 15 29 44 41 65 l23 37 -34 0 c-30 0 -36 -6 -72 -66
-39 -65 -78 -104 -84 -84 -2 5 10 29 27 52 33 44 39 79 19 96 -8 6 -40 8 -79
5 -62 -5 -67 -7 -84 -40 -21 -37 -34 -38 -52 -2 -27 53 -63 61 -129 29 -46
-23 -71 -54 -80 -99 -5 -23 -1 -35 20 -56 22 -22 32 -25 59 -20 48 11 86 36
109 73 30 49 43 27 13 -24 l-26 -44 36 0 c19 0 35 4 35 9 0 5 20 35 44 68 67
87 129 118 67 32 -55 -75 -32 -135 37 -102 25 12 36 13 45 4 16 -16 53 -14 81
4 21 14 24 14 29 0 5 -11 22 -15 71 -15 l64 0 30 48 c35 53 99 119 108 110 7
-7 -18 -58 -58 -115 l-29 -43 34 0 c31 0 39 6 65 48 34 52 99 119 107 110 3
-3 -10 -29 -30 -58 -19 -28 -35 -57 -35 -64 0 -38 60 -47 100 -16 25 19 25 19
41 -2 10 -13 27 -20 45 -20 16 1 56 1 90 2 l61 0 31 48 c34 52 99 119 107 110
3 -3 -8 -28 -25 -56 -39 -61 -37 -96 3 -100 16 -2 39 3 52 12 20 13 25 13 35
1 30 -37 103 -5 165 71 52 63 34 69 -23 7 -51 -56 -92 -83 -92 -61 0 7 15 38
33 68 27 44 39 56 63 58 39 5 56 22 21 22 -31 0 -33 7 -11 38 15 21 14 22 -20
22 -29 0 -38 -5 -51 -30z m-1355 -94 c-23 -70 -90 -126 -90 -76 0 30 36 96 62
114 31 22 43 6 28 -38z m1000 35 c0 -12 -59 -55 -66 -49 -2 3 5 17 17 31 20
26 49 36 49 18z"/>
<path d="M2295 1315 c-384 -84 -760 -435 -804 -751 -25 -171 42 -315 174 -376
43 -20 65 -23 165 -22 96 0 128 5 196 27 192 63 309 188 322 343 10 127 -62
204 -189 204 -89 0 -149 -31 -233 -121 -61 -64 -77 -89 -58 -89 4 0 26 24 49
54 59 75 124 116 183 116 88 0 126 -58 118 -180 -19 -258 -360 -442 -507 -274
-72 81 -80 253 -21 416 105 290 384 565 643 634 105 28 198 12 233 -40 34 -53
3 -171 -67 -250 -37 -43 -122 -86 -168 -86 -80 0 -134 67 -114 141 14 53 -3
61 -18 9 -39 -131 97 -214 268 -162 85 26 144 67 177 124 70 120 26 246 -98
283 -60 18 -170 18 -251 0z"/>
<path d="M542 1230 c-18 -11 -32 -28 -32 -39 0 -21 -26 -36 -35 -20 -4 5 -3
18 0 29 5 15 2 20 -12 20 -29 -1 -55 -26 -62 -62 -9 -41 -41 -52 -41 -14 0 15
-6 26 -13 26 -25 0 -52 -41 -52 -79 0 -42 -24 -50 -40 -13 -5 12 -13 22 -16
22 -12 0 -30 -28 -39 -59 -7 -26 -5 -36 17 -62 15 -17 37 -35 51 -40 18 -7 22
-13 14 -21 -7 -7 -18 -3 -39 16 -15 14 -34 26 -42 26 -7 0 -20 8 -27 18 -13
16 -15 16 -29 -2 -20 -26 -19 -55 2 -78 13 -14 14 -21 5 -30 -9 -9 -15 -8 -25
7 -8 10 -19 15 -25 11 -17 -10 -15 -81 3 -96 17 -14 20 -40 6 -40 -6 0 -13 5
-16 10 -3 6 -13 10 -21 10 -25 0 -18 -68 11 -94 35 -32 33 -49 -5 -41 -26 6
-30 4 -30 -15 0 -32 18 -60 46 -70 30 -12 34 -45 3 -37 -51 13 -27 -56 27 -79
37 -16 45 -34 15 -34 -11 0 -23 -5 -26 -11 -11 -17 36 -59 66 -59 14 0 32 -6
38 -14 9 -11 6 -15 -14 -20 -30 -8 -31 -17 -6 -40 19 -18 48 -22 83 -14 23 6
58 38 58 55 0 7 7 13 15 13 23 0 18 -13 -15 -45 -16 -16 -30 -34 -30 -42 0 -7
-10 -18 -22 -24 l-22 -12 23 -18 c25 -20 66 -25 76 -9 8 14 42 13 51 -1 4 -7
-1 -16 -10 -21 -24 -13 -20 -35 8 -42 27 -7 72 7 77 23 2 6 14 8 27 4 22 -5
22 -6 5 -25 -15 -17 -15 -21 -3 -28 8 -6 21 -10 28 -10 19 0 56 20 65 36 4 8
17 14 28 14 16 0 19 -6 17 -27 -3 -24 0 -28 21 -25 29 3 61 29 61 49 0 7 11
13 26 13 23 0 25 -3 20 -25 -5 -20 -3 -25 12 -25 29 0 62 29 62 55 0 14 8 29
19 35 28 14 31 13 31 -15 0 -33 23 -32 50 2 14 18 19 35 15 50 -3 15 1 25 14
32 16 9 20 7 25 -14 4 -14 10 -25 15 -25 12 0 38 32 44 55 8 27 -23 88 -51
100 -19 9 -32 35 -16 35 6 0 53 -41 91 -80 24 -24 25 -24 39 -5 17 23 18 67 3
82 -7 7 -9 19 -5 29 6 16 8 15 27 -2 17 -16 22 -16 29 -4 14 22 12 54 -5 76
-8 10 -15 27 -15 37 0 18 25 24 35 7 13 -21 25 -9 25 25 0 23 -7 41 -20 52
-11 10 -20 25 -20 35 0 21 11 23 28 6 9 -9 13 -7 18 6 9 24 -12 67 -36 73 -11
3 -20 14 -20 25 0 15 5 18 19 13 11 -3 22 -1 26 4 10 17 -24 71 -45 71 -11 0
-24 9 -30 20 -9 18 -8 20 15 20 49 0 20 57 -35 69 -38 7 -53 31 -21 31 27 0
27 22 1 45 -32 29 -80 22 -112 -16 -15 -18 -31 -29 -35 -25 -4 4 7 18 25 32
18 14 32 32 32 40 0 8 9 14 20 14 11 0 20 7 20 15 0 22 -39 38 -79 31 -47 -7
-73 7 -42 23 29 16 26 26 -9 41 -25 10 -36 10 -58 0 -39 -19 -77 -11 -54 12
37 37 -33 55 -73 18 -27 -25 -52 -13 -36 19 11 19 9 21 -14 21 -34 0 -65 -17
-65 -35 0 -9 -10 -15 -26 -15 -23 0 -25 3 -20 24 8 34 -5 39 -42 16z m173
-505 c52 -51 16 -145 -55 -145 -37 0 -90 47 -90 79 0 78 92 120 145 66z"/>
<path d="M3906 495 c-21 -21 -20 -32 3 -44 27 -15 60 11 45 35 -15 25 -29 27
-48 9z m34 -20 c0 -8 -7 -15 -15 -15 -16 0 -20 12 -8 23 11 12 23 8 23 -8z"/>
<path d="M3008 430 c-10 -18 -25 -30 -38 -30 -21 0 -28 -16 -9 -22 16 -5 -26
-77 -57 -101 -23 -17 -24 -17 -24 2 0 11 -3 26 -6 35 -4 11 0 16 13 16 41 0
59 51 24 70 -26 13 -54 13 -85 -2 -36 -16 -41 -42 -15 -88 18 -32 20 -42 9
-55 -15 -17 -50 -20 -50 -4 0 7 7 17 17 24 23 17 10 45 -21 45 -19 0 -27 -7
-32 -25 -6 -26 -31 -52 -41 -42 -3 4 9 28 26 55 49 77 37 105 -40 98 -24 -2
-54 -4 -66 -5 -13 -1 -29 -14 -42 -36 -23 -39 -45 -39 -55 1 -8 32 -45 48 -89
40 -87 -16 -149 -124 -99 -169 41 -37 135 -8 170 53 9 16 20 30 25 30 13 0 7
-24 -13 -55 -26 -40 -25 -45 9 -45 24 0 35 9 59 48 36 54 99 119 108 109 4 -3
-8 -29 -26 -56 -34 -53 -36 -77 -8 -95 13 -8 26 -7 49 1 21 8 38 9 50 3 27
-15 96 -12 130 6 27 13 33 14 47 1 11 -9 40 -14 80 -15 59 0 63 2 84 32 11 17
35 46 51 63 30 32 31 32 44 13 8 -11 21 -20 30 -20 12 0 14 -7 9 -31 -11 -55
33 -78 83 -43 22 16 24 16 33 0 12 -22 46 -20 87 5 l33 20 15 -20 c19 -27 86
-28 129 -2 30 18 31 18 42 0 16 -25 62 -24 95 1 l26 21 11 -21 c14 -26 44 -25
87 1 l34 21 16 -22 c14 -19 22 -22 67 -17 45 4 55 10 92 50 23 26 44 44 47 40
4 -3 -5 -25 -19 -49 l-26 -44 30 0 c26 0 37 10 77 65 68 95 135 136 74 45 -19
-30 -29 -55 -27 -75 3 -26 7 -30 36 -33 28 -3 39 4 92 60 33 34 60 66 60 70 0
19 -22 4 -60 -41 -66 -79 -103 -83 -50 -6 21 30 30 55 28 73 -3 27 -3 27 -78
24 -41 -1 -76 -6 -78 -12 -2 -5 -12 -21 -24 -35 -16 -20 -23 -23 -34 -14 -8 6
-14 17 -14 24 0 20 -35 45 -64 45 -46 0 -103 -36 -131 -84 -25 -43 -71 -83
-82 -72 -3 3 13 36 35 73 l42 68 -60 3 c-33 2 -60 6 -60 10 0 4 7 18 16 30 15
21 14 22 -19 22 -26 0 -39 -6 -51 -25 -10 -14 -29 -31 -44 -37 -23 -8 -24 -11
-10 -17 16 -6 16 -9 -5 -43 -12 -21 -38 -49 -56 -63 -86 -63 -135 6 -61 85 37
40 54 39 45 -1 -7 -29 -5 -30 20 -27 35 4 51 40 29 63 -39 39 -134 1 -180 -72
-29 -46 -69 -81 -81 -70 -3 3 13 35 36 71 22 36 41 69 41 74 0 5 -13 7 -30 4
-21 -3 -36 -15 -52 -41 -28 -44 -87 -111 -99 -111 -18 0 -8 25 32 87 23 35 40
65 38 67 -2 2 -18 2 -35 -1 -20 -3 -36 -15 -48 -34 -18 -30 -36 -38 -36 -16 0
7 7 23 16 35 l15 22 -100 -6 c-106 -7 -112 -4 -91 37 10 17 7 19 -22 19 -26 0
-37 -6 -50 -30z m-548 -67 c0 -32 -37 -101 -62 -117 -13 -8 -21 -7 -29 1 -21
21 48 143 81 143 6 0 10 -12 10 -27z m415 2 c0 -10 -6 -20 -12 -22 -8 -3 -13
5 -13 22 0 17 5 25 13 23 6 -3 12 -13 12 -23z m1179 17 c17 -28 -48 -142 -80
-142 -30 0 -6 78 39 128 22 23 33 27 41 14z m-954 -9 c-1 -16 -56 -87 -81
-106 -46 -33 -50 -15 -13 51 31 54 39 62 65 62 16 0 29 -3 29 -7z m730 1 c0
-14 -56 -81 -89 -107 -41 -32 -50 -23 -25 25 34 67 54 88 85 88 16 0 29 -3 29
-6z"/>
</g>
</svg>
